<?xml version="1.0" standalone="no"?>
<!DOCTYPE svg PUBLIC "-//W3C//DTD SVG 20010904//EN"
 "http://www.w3.org/TR/2001/REC-SVG-20010904/DTD/svg10.dtd">
<svg version="1.0" xmlns="http://www.w3.org/2000/svg"
 width="700.000000pt" height="700.000000pt" viewBox="0 0 700.000000 700.000000"
 preserveAspectRatio="xMidYMid meet">
<metadata>
Created by potrace 1.14, written by Peter Selinger 2001-2017
</metadata>
<g transform="translate(0.000000,700.000000) scale(0.100000,-0.100000)"
fill="#000000" stroke="none">
<path d="M3887 6364 c-1 -1 -63 -4 -137 -8 -135 -6 -158 -8 -300 -27 -115 -16
-126 -18 -255 -49 -535 -128 -960 -413 -1245 -836 -146 -216 -258 -484 -300
-717 -13 -73 -17 -270 -7 -352 24 -192 129 -385 273 -503 57 -46 183 -115 229
-125 17 -4 53 -12 80 -17 33 -8 355 -11 955 -11 498 0 923 -4 944 -9 93 -20
138 -93 138 -224 0 -46 -3 -89 -6 -95 -10 -16 6 -13 34 6 64 44 124 144 150
248 18 76 21 231 4 293 -16 62 -59 128 -106 164 -64 49 -120 71 -263 104 -16
4 -399 8 -850 9 -451 2 -841 6 -866 9 -142 19 -289 152 -337 306 -25 78 -30
187 -14 260 6 25 13 56 16 70 9 48 43 156 71 225 183 462 553 792 1060 945 75
23 273 66 340 75 28 3 64 8 80 10 109 15 495 22 615 11 231 -22 322 -34 460
-62 41 -9 83 -18 92 -19 202 -40 533 -169 747 -293 45 -25 211 -133 234 -152
382 -305 614 -593 805 -1000 88 -186 189 -495 218 -670 4 -25 8 -47 9 -50 2
-5 12 -88 20 -155 6 -50 7 -271 1 -305 -2 -14 -7 -52 -11 -85 -20 -177 -96
-413 -179 -555 -118 -201 -383 -489 -626 -678 -494 -387 -1081 -595 -1680
-595 -105 0 -278 9 -340 17 -72 10 -176 27 -190 31 -3 1 -23 5 -45 9 -118 24
-418 117 -439 137 -6 5 -16 9 -24 9 -37 0 -454 227 -537 292 -5 4 -62 47 -125
95 -165 127 -396 358 -530 532 -28 37 -30 42 -11 32 83 -45 551 -224 671 -257
108 -30 404 -104 435 -108 22 -4 72 -13 110 -20 39 -8 93 -17 120 -20 28 -4
68 -9 90 -12 22 -3 56 -7 75 -9 213 -27 926 -27 1095 0 17 3 44 7 60 10 17 3
50 8 75 11 25 4 113 23 195 44 536 135 981 427 1223 802 84 130 159 303 178
411 3 17 6 33 8 36 2 3 7 35 12 71 46 397 -92 768 -400 1075 -94 94 -101 99
-201 176 -204 156 -564 325 -795 374 -8 1 -33 8 -55 13 -62 16 -184 40 -240
47 -27 3 -61 8 -75 10 -99 18 -439 26 -566 14 -153 -16 -179 -19 -200 -23 -12
-2 -38 -7 -59 -10 -141 -23 -420 -102 -532 -151 -43 -20 -51 -27 -46 -44 6
-25 9 -25 109 -6 109 20 191 27 314 27 141 -1 267 -15 375 -43 186 -48 337
-114 490 -215 333 -219 543 -544 590 -914 7 -58 8 -219 1 -262 -3 -18 -8 -49
-11 -68 -8 -56 -50 -200 -78 -267 -137 -321 -417 -586 -774 -730 -81 -33 -237
-77 -308 -88 -16 -3 -59 -9 -95 -15 -63 -9 -510 -6 -600 4 -25 3 -71 8 -102
11 -96 9 -149 16 -268 35 -97 16 -165 28 -180 34 -8 3 -28 7 -45 10 -60 9
-273 67 -385 105 -772 261 -1229 710 -1389 1363 -17 68 -33 148 -37 178 -3 30
-8 66 -10 80 -3 14 -6 104 -8 200 -3 142 0 193 16 269 54 268 210 471 461 602
55 29 71 42 69 56 -2 10 -5 20 -7 22 -2 2 -306 4 -674 5 l-671 1 0 -102 0
-103 33 0 c46 0 130 -42 173 -87 21 -21 49 -63 63 -93 l26 -55 0 -1990 0
-1990 -26 -55 c-45 -96 -115 -152 -214 -175 l-50 -11 -3 -97 c-2 -87 -1 -97
15 -97 10 -1 559 -2 1221 -3 l1202 -2 0 101 0 100 -383 0 -382 0 -58 27 c-31
14 -72 41 -91 59 -40 39 -81 116 -92 173 -8 46 -12 1515 -3 1515 3 0 27 -39
54 -88 173 -313 427 -616 730 -874 77 -65 145 -122 150 -126 6 -4 42 -30 80
-58 327 -240 738 -449 1155 -587 134 -45 373 -111 440 -122 19 -3 51 -10 70
-15 19 -5 49 -11 65 -14 17 -2 68 -11 115 -19 47 -9 108 -18 135 -22 28 -3 61
-8 75 -10 55 -9 212 -23 340 -30 89 -6 464 -6 535 -1 136 10 227 17 242 20 10
2 50 7 88 11 39 3 122 16 185 27 63 11 126 22 140 24 194 33 625 157 769 220
69 31 134 96 168 170 l28 59 1 1295 c2 1039 -1 1314 -11 1390 -8 52 -16 112
-19 132 -10 72 -58 271 -90 377 -100 325 -269 647 -483 920 -104 133 -328 352
-476 465 -370 282 -886 494 -1367 561 -25 3 -52 8 -60 10 -8 2 -46 6 -83 10
-37 3 -77 8 -89 10 -11 3 -95 7 -187 11 -91 3 -183 7 -204 8 -21 1 -39 1 -40
0z"/>
</g>
</svg>
