<svg width="170" height="40" viewBox="0 0 170 40" fill="none" xmlns="http://www.w3.org/2000/svg">
<g clip-path="url(#clip0_15:3)">
<path d="M53 19.4514V35.6137C53.0001 36.1131 52.8451 36.6002 52.5565 37.0075C52.2679 37.4148 51.86 37.7222 51.3892 37.8872C47.2864 39.3028 42.975 40.017 38.6355 40C32.8897 40 27.5224 38.7978 22.9535 36.7088C18.1508 34.5266 14.2357 31.3525 11.6996 27.5673C11.3773 27.0846 11.0769 26.5926 10.7982 26.0913V36.3299C10.7982 36.9349 11.0382 37.5152 11.4655 37.9431C11.8928 38.3709 12.4724 38.6113 13.0767 38.6113H18.4718V40H-0.0039444V38.6113C0.600353 38.6113 1.1799 38.3709 1.6072 37.9431C2.0345 37.5152 2.27456 36.9349 2.27456 36.3299V9.74653C2.27456 9.14147 2.0345 8.56118 1.6072 8.13334C1.1799 7.70549 0.600353 7.46513 -0.0039444 7.46513V6.07645H10.067C10.113 6.07679 10.1575 6.09314 10.1927 6.1227C10.228 6.15226 10.2519 6.19319 10.2603 6.23845C10.2688 6.28372 10.2612 6.33052 10.239 6.37082C10.2167 6.41112 10.1811 6.44241 10.1384 6.45933C8.55332 7.08821 6.05885 8.65344 6.05885 12.3255C6.05885 26.1072 23.0446 26.9305 27.4867 26.9305C33.6426 26.9305 38.6316 22.8398 38.6316 17.793C38.6316 12.7461 33.6426 8.65543 27.4867 8.65543C26.5074 8.65512 25.5308 8.76087 24.5742 8.97085C24.5258 8.98164 24.4751 8.97389 24.4322 8.9491C24.3892 8.92431 24.3571 8.88429 24.3422 8.83695C24.3273 8.78962 24.3306 8.73841 24.3515 8.69342C24.3725 8.64843 24.4095 8.61293 24.4553 8.59394C26.9875 7.63632 29.6738 7.15282 32.3805 7.16755C41.2449 7.16755 48.4291 12.0517 48.4291 18.0786C48.4291 24.1055 41.2449 28.9897 32.3805 28.9897C29.3689 28.9897 23.75 29.3865 15.2799 25.8017C17.8732 28.9964 21.3034 31.4054 25.1864 32.759C29.4457 34.2234 34.0525 34.3364 38.3784 33.0828C42.7043 31.8292 46.5386 29.2699 49.3584 25.7541C49.3584 25.7541 49.3901 25.7184 49.4436 25.6489C49.826 25.1649 51.3535 23.0025 51.3535 19.4514C51.3535 14.6089 47.1175 1.59696 29.7038 1.59696C16.5954 1.59696 15.2283 10.5639 15.1214 11.5161C15.1214 11.5637 15.1214 11.6113 15.1214 11.6589V11.7542C15.1214 12.6118 15.4616 13.4343 16.0673 14.0407C16.6729 14.6471 17.4944 14.9878 18.3509 14.9878H29.3749C33.0403 14.9878 33.7595 16.4221 33.7595 17.6739C33.7595 20.4156 32.1745 20.8798 32.1745 20.8798C32.1745 20.8798 32.8838 18.4754 30.7658 18.4754H17.6891C16.2835 18.4754 14.9354 17.9163 13.9415 16.9211C12.9475 15.9259 12.3891 14.5761 12.3891 13.1686V12.2997C12.3891 11.3634 13.045 8.20312 15.6306 5.32062C18.133 2.53135 22.4423 0.00195339 29.7097 0.00195339C46.3052 -3.04412e-05 53 11.1213 53 19.4514Z" fill="black"/>
</g>
<path d="M75.2266 15.8359H73.3594V20H71.0156V8.625H75.2422C76.5859 8.625 77.6224 8.92448 78.3516 9.52344C79.0807 10.1224 79.4453 10.9688 79.4453 12.0625C79.4453 12.8385 79.276 13.487 78.9375 14.0078C78.6042 14.5234 78.0964 14.9349 77.4141 15.2422L79.875 19.8906V20H77.3594L75.2266 15.8359ZM73.3594 13.9375H75.25C75.8385 13.9375 76.2943 13.7891 76.6172 13.4922C76.9401 13.1901 77.1016 12.776 77.1016 12.25C77.1016 11.7135 76.9479 11.2917 76.6406 10.9844C76.3385 10.6771 75.8724 10.5234 75.2422 10.5234H73.3594V13.9375ZM90.5781 14.5703C90.5781 15.6901 90.3802 16.6719 89.9844 17.5156C89.5885 18.3594 89.0208 19.0104 88.2812 19.4688C87.5469 19.9271 86.7031 20.1562 85.75 20.1562C84.8073 20.1562 83.9661 19.9297 83.2266 19.4766C82.487 19.0234 81.9141 18.3776 81.5078 17.5391C81.1016 16.6953 80.8958 15.7266 80.8906 14.6328V14.0703C80.8906 12.9505 81.0911 11.9661 81.4922 11.1172C81.8984 10.263 82.4688 9.60938 83.2031 9.15625C83.9427 8.69792 84.7865 8.46875 85.7344 8.46875C86.6823 8.46875 87.5234 8.69792 88.2578 9.15625C88.9974 9.60938 89.5677 10.263 89.9688 11.1172C90.375 11.9661 90.5781 12.9479 90.5781 14.0625V14.5703ZM88.2031 14.0547C88.2031 12.862 87.9896 11.9557 87.5625 11.3359C87.1354 10.7161 86.526 10.4062 85.7344 10.4062C84.9479 10.4062 84.3411 10.7135 83.9141 11.3281C83.487 11.9375 83.2708 12.8333 83.2656 14.0156V14.5703C83.2656 15.7318 83.4792 16.6328 83.9062 17.2734C84.3333 17.9141 84.9479 18.2344 85.75 18.2344C86.5365 18.2344 87.1406 17.9271 87.5625 17.3125C87.9844 16.6927 88.1979 15.7917 88.2031 14.6094V14.0547ZM98.5312 17.6562H94.4219L93.6406 20H91.1484L95.3828 8.625H97.5547L101.812 20H99.3203L98.5312 17.6562ZM95.0547 15.7578H97.8984L96.4688 11.5L95.0547 15.7578ZM108.773 17.0156C108.773 16.5729 108.617 16.2344 108.305 16C107.992 15.7604 107.43 15.5104 106.617 15.25C105.805 14.9844 105.161 14.724 104.688 14.4688C103.396 13.7708 102.75 12.8307 102.75 11.6484C102.75 11.0339 102.922 10.487 103.266 10.0078C103.615 9.52344 104.112 9.14583 104.758 8.875C105.409 8.60417 106.138 8.46875 106.945 8.46875C107.758 8.46875 108.482 8.61719 109.117 8.91406C109.753 9.20573 110.245 9.61979 110.594 10.1562C110.948 10.6927 111.125 11.3021 111.125 11.9844H108.781C108.781 11.4635 108.617 11.0599 108.289 10.7734C107.961 10.4818 107.5 10.3359 106.906 10.3359C106.333 10.3359 105.888 10.4583 105.57 10.7031C105.253 10.9427 105.094 11.2604 105.094 11.6562C105.094 12.026 105.279 12.3359 105.648 12.5859C106.023 12.8359 106.573 13.0703 107.297 13.2891C108.63 13.6901 109.602 14.1875 110.211 14.7812C110.82 15.375 111.125 16.1146 111.125 17C111.125 17.9844 110.753 18.7578 110.008 19.3203C109.263 19.8776 108.26 20.1562 107 20.1562C106.125 20.1562 105.328 19.9974 104.609 19.6797C103.891 19.3568 103.341 18.9167 102.961 18.3594C102.586 17.8021 102.398 17.1562 102.398 16.4219H104.75C104.75 17.6771 105.5 18.3047 107 18.3047C107.557 18.3047 107.992 18.1927 108.305 17.9688C108.617 17.7396 108.773 17.4219 108.773 17.0156ZM121.281 10.5234H117.797V20H115.453V10.5234H112.016V8.625H121.281V10.5234ZM129.469 15.0703H124.969V18.1172H130.25V20H122.625V8.625H130.234V10.5234H124.969V13.2344H129.469V15.0703ZM131.625 20V8.625H135.125C136.125 8.625 137.018 8.85156 137.805 9.30469C138.596 9.7526 139.214 10.3932 139.656 11.2266C140.099 12.0547 140.32 12.9974 140.32 14.0547V14.5781C140.32 15.6354 140.102 16.5755 139.664 17.3984C139.232 18.2214 138.62 18.8594 137.828 19.3125C137.036 19.7656 136.143 19.9948 135.148 20H131.625ZM133.969 10.5234V18.1172H135.102C136.018 18.1172 136.719 17.8177 137.203 17.2188C137.688 16.6198 137.935 15.763 137.945 14.6484V14.0469C137.945 12.8906 137.706 12.0156 137.227 11.4219C136.747 10.8229 136.047 10.5234 135.125 10.5234H133.969ZM79.6875 32.3906C79.5469 33.5938 79.1016 34.5234 78.3516 35.1797C77.6068 35.8307 76.6146 36.1562 75.375 36.1562C74.0312 36.1562 72.9531 35.6745 72.1406 34.7109C71.3333 33.7474 70.9297 32.4583 70.9297 30.8438V29.75C70.9297 28.6927 71.1172 27.763 71.4922 26.9609C71.8724 26.1589 72.4089 25.5443 73.1016 25.1172C73.7943 24.6849 74.5964 24.4688 75.5078 24.4688C76.7161 24.4688 77.6849 24.8073 78.4141 25.4844C79.1432 26.1562 79.5677 27.0885 79.6875 28.2812H78.1797C78.0495 27.375 77.7656 26.7188 77.3281 26.3125C76.8958 25.9062 76.2891 25.7031 75.5078 25.7031C74.5495 25.7031 73.7969 26.0573 73.25 26.7656C72.7083 27.474 72.4375 28.4818 72.4375 29.7891V30.8906C72.4375 32.125 72.6953 33.1068 73.2109 33.8359C73.7266 34.5651 74.4479 34.9297 75.375 34.9297C76.2083 34.9297 76.8464 34.7422 77.2891 34.3672C77.737 33.987 78.0339 33.3281 78.1797 32.3906H79.6875ZM90.4922 30.6797C90.4922 31.7943 90.3047 32.7682 89.9297 33.6016C89.5547 34.4297 89.0234 35.0625 88.3359 35.5C87.6484 35.9375 86.8464 36.1562 85.9297 36.1562C85.0339 36.1562 84.2396 35.9375 83.5469 35.5C82.8542 35.0573 82.3151 34.4297 81.9297 33.6172C81.5495 32.7995 81.3542 31.8542 81.3438 30.7812V29.9609C81.3438 28.8672 81.5339 27.901 81.9141 27.0625C82.2943 26.224 82.8307 25.5833 83.5234 25.1406C84.2214 24.6927 85.0182 24.4688 85.9141 24.4688C86.8255 24.4688 87.6276 24.6901 88.3203 25.1328C89.0182 25.5703 89.5547 26.2083 89.9297 27.0469C90.3047 27.8802 90.4922 28.8516 90.4922 29.9609V30.6797ZM89 29.9453C89 28.5964 88.7292 27.5625 88.1875 26.8438C87.6458 26.1198 86.888 25.7578 85.9141 25.7578C84.9661 25.7578 84.2188 26.1198 83.6719 26.8438C83.1302 27.5625 82.8516 28.5625 82.8359 29.8438V30.6797C82.8359 31.987 83.1094 33.0156 83.6562 33.7656C84.2083 34.5104 84.9661 34.8828 85.9297 34.8828C86.8984 34.8828 87.6484 34.5312 88.1797 33.8281C88.7109 33.1198 88.9844 32.1068 89 30.7891V29.9453ZM99.0156 30.9766H94.2422V36H92.7422V24.625H99.7891V25.8594H94.2422V29.75H99.0156V30.9766ZM107.859 30.9766H103.086V36H101.586V24.625H108.633V25.8594H103.086V29.75H107.859V30.9766ZM116.859 30.7422H111.93V34.7734H117.656V36H110.43V24.625H117.578V25.8594H111.93V29.5156H116.859V30.7422ZM125.953 30.7422H121.023V34.7734H126.75V36H119.523V24.625H126.672V25.8594H121.023V29.5156H125.953V30.7422ZM128.422 35.2422C128.422 34.9922 128.495 34.7839 128.641 34.6172C128.792 34.4505 129.016 34.3672 129.312 34.3672C129.609 34.3672 129.833 34.4505 129.984 34.6172C130.141 34.7839 130.219 34.9922 130.219 35.2422C130.219 35.4818 130.141 35.6823 129.984 35.8438C129.833 36.0052 129.609 36.0859 129.312 36.0859C129.016 36.0859 128.792 36.0052 128.641 35.8438C128.495 35.6823 128.422 35.4818 128.422 35.2422ZM141.203 32.3906C141.062 33.5938 140.617 34.5234 139.867 35.1797C139.122 35.8307 138.13 36.1562 136.891 36.1562C135.547 36.1562 134.469 35.6745 133.656 34.7109C132.849 33.7474 132.445 32.4583 132.445 30.8438V29.75C132.445 28.6927 132.633 27.763 133.008 26.9609C133.388 26.1589 133.924 25.5443 134.617 25.1172C135.31 24.6849 136.112 24.4688 137.023 24.4688C138.232 24.4688 139.201 24.8073 139.93 25.4844C140.659 26.1562 141.083 27.0885 141.203 28.2812H139.695C139.565 27.375 139.281 26.7188 138.844 26.3125C138.411 25.9062 137.805 25.7031 137.023 25.7031C136.065 25.7031 135.312 26.0573 134.766 26.7656C134.224 27.474 133.953 28.4818 133.953 29.7891V30.8906C133.953 32.125 134.211 33.1068 134.727 33.8359C135.242 34.5651 135.964 34.9297 136.891 34.9297C137.724 34.9297 138.362 34.7422 138.805 34.3672C139.253 33.987 139.549 33.3281 139.695 32.3906H141.203ZM144.766 34.7734H150.156V36H143.258V24.625H144.766V34.7734ZM159.453 24.625V32.3594C159.448 33.4323 159.109 34.3099 158.438 34.9922C157.771 35.6745 156.865 36.0573 155.719 36.1406L155.32 36.1562C154.076 36.1562 153.083 35.8203 152.344 35.1484C151.604 34.4766 151.229 33.5521 151.219 32.375V24.625H152.703V32.3281C152.703 33.151 152.93 33.7917 153.383 34.25C153.836 34.7031 154.482 34.9297 155.32 34.9297C156.169 34.9297 156.818 34.7031 157.266 34.25C157.719 33.7969 157.945 33.1589 157.945 32.3359V24.625H159.453ZM161.82 36V24.625H165.539C166.773 24.625 167.701 24.8802 168.32 25.3906C168.945 25.901 169.258 26.6562 169.258 27.6562C169.258 28.1875 169.107 28.6589 168.805 29.0703C168.503 29.4766 168.091 29.7917 167.57 30.0156C168.185 30.1875 168.669 30.5156 169.023 31C169.383 31.4792 169.562 32.0521 169.562 32.7188C169.562 33.7396 169.232 34.5417 168.57 35.125C167.909 35.7083 166.974 36 165.766 36H161.82ZM163.32 30.6797V34.7734H165.797C166.495 34.7734 167.044 34.5938 167.445 34.2344C167.852 33.8698 168.055 33.3698 168.055 32.7344C168.055 31.3646 167.31 30.6797 165.82 30.6797H163.32ZM163.32 29.4766H165.586C166.242 29.4766 166.766 29.3125 167.156 28.9844C167.552 28.6562 167.75 28.2109 167.75 27.6484C167.75 27.0234 167.568 26.5703 167.203 26.2891C166.839 26.0026 166.284 25.8594 165.539 25.8594H163.32V29.4766Z" fill="black"/>
<defs>
<clipPath id="clip0_15:3">
<rect width="53" height="40" fill="white"/>
</clipPath>
</defs>
</svg>
