<svg width="23" height="23" viewBox="0 0 23 23" fill="none" xmlns="http://www.w3.org/2000/svg">
<path fill-rule="evenodd" clip-rule="evenodd" d="M10.7139 2.35729C10.9395 1.68053 11.5965 1.20789 12.2801 1.4117C14.2791 2.00768 15.7365 3.85996 15.7365 6.05263V8.47368C15.7365 10.6073 14.3565 12.4185 12.4405 13.0638C12.2239 13.1366 12.0327 12.9272 12.105 12.7105C12.4979 11.5319 12.4979 10.2576 12.105 9.07895L11.4997 7.26316L10.8944 5.44737L10.7139 4.90586C10.4382 4.07871 10.4382 3.18445 10.7139 2.35729ZM9.34837 1.46259C9.56485 1.38971 9.75613 1.59909 9.6839 1.81579C9.29101 2.99444 9.29101 4.26872 9.6839 5.44737L10.2892 7.26316L10.8944 9.07895L11.0749 9.62045C11.3507 10.4476 11.3507 11.3419 11.0749 12.1691C10.8493 12.8457 10.1924 13.3185 9.50874 13.1146C7.50976 12.5187 6.05232 10.6664 6.05232 8.47368V6.05263C6.05232 3.91903 7.43229 2.10774 9.34837 1.46259ZM10.619 0.00615536C7.40406 0.150143 4.8418 2.80216 4.8418 6.05263V8.47368C4.8418 11.8165 7.55166 14.5263 10.8944 14.5263C10.9433 14.5263 10.992 14.5257 11.0405 14.5246C11.0554 14.5257 11.0705 14.5263 11.0858 14.5263C11.1143 14.5263 11.1423 14.5243 11.1699 14.5201C14.3847 14.3762 16.9471 11.7242 16.9471 8.47368V6.05263C16.9471 2.70986 14.2372 0 10.8944 0C10.8456 0 10.7969 0.000578321 10.7483 0.00172849C10.7334 0.000583994 10.7183 0 10.703 0C10.6746 0 10.6465 0.00209333 10.619 0.00615536Z" fill="#211D1A"/>
<path fill-rule="evenodd" clip-rule="evenodd" d="M16.9474 15.2739C16.9474 15.0709 16.841 14.8819 16.6635 14.7832C14.9907 13.8531 13.0133 13.3157 10.8947 13.3157C4.87774 13.3157 0 17.6514 0 22.9999C0 22.9999 2.06746e-05 22.9999 4.61779e-05 22.9999H1.2105C1.21052 22.9999 1.21053 22.9999 1.21053 22.9999C1.21053 22.9999 1.21054 22.9999 1.21055 22.9999H20.5789H21.7895C21.7895 21.3434 21.3216 19.784 20.4969 18.4205C20.3968 18.255 20.2153 18.1578 20.0217 18.1578C19.543 18.1578 19.2646 18.7213 19.5071 19.1342C19.7474 19.543 19.9506 19.9701 20.1133 20.4113C20.3719 21.1128 19.7989 21.7894 19.0511 21.7894H2.73831C1.99063 21.7894 1.41756 21.1127 1.67625 20.4112C2.91297 17.0574 6.48823 14.5262 10.8947 14.5262C12.7925 14.5262 14.536 14.9956 16.005 15.7981C16.4146 16.0219 16.9474 15.7407 16.9474 15.2739Z" fill="#211D1A"/>
<path d="M14.5264 16.9471L16.6209 19.7403L22.3946 13.3157" stroke="black" stroke-linecap="round"/>
</svg>
