<svg width="18" height="19" viewBox="0 0 18 19" fill="none" xmlns="http://www.w3.org/2000/svg">
<path fill-rule="evenodd" clip-rule="evenodd" d="M8.85089 1.94733C9.03725 1.38826 9.57995 0.997819 10.1447 1.16619C11.796 1.65852 13 3.18866 13 5V7C13 8.76254 11.86 10.2588 10.2772 10.7918C10.0983 10.852 9.94033 10.679 10 10.5C10.3246 9.52633 10.3246 8.47367 10 7.5L9.5 6L9 4.5L8.85089 4.05267C8.62312 3.36937 8.62312 2.63063 8.85089 1.94733ZM7.72282 1.20823C7.90165 1.14802 8.05967 1.32099 8 1.5C7.67544 2.47367 7.67544 3.52633 8 4.5L8.5 6L9 7.5L9.14911 7.94733C9.37688 8.63063 9.37688 9.36937 9.14911 10.0527C8.96275 10.6117 8.42005 11.0022 7.8553 10.8338C6.20397 10.3415 5 8.81134 5 7V5C5 3.23746 6.13997 1.74118 7.72282 1.20823ZM8.77247 0.00508486C6.11665 0.124031 4 2.31483 4 5V7C4 9.76142 6.23858 12 9 12C9.04034 12 9.08057 11.9995 9.12068 11.9986C9.13301 11.9995 9.14549 12 9.15811 12C9.1816 12 9.20479 11.9983 9.22753 11.9949C11.8833 11.876 14 9.68517 14 7V5C14 2.23858 11.7614 0 9 0C8.95966 0 8.91943 0.000477743 8.87932 0.00142788C8.86699 0.00048243 8.85451 0 8.84189 0C8.8184 0 8.79521 0.00172927 8.77247 0.00508486Z" fill="#211D1A"/>
<path fill-rule="evenodd" clip-rule="evenodd" d="M1.00002 19C1.00001 19 1 19 1 19C1 19 0.999991 19 0.999981 19H3.8147e-05C1.7079e-05 19 0 19 0 19C0 14.5817 4.02944 11 9 11C10.3226 11 11.5787 11.2536 12.7098 11.7091C12.8875 11.7806 13 11.9551 13 12.1466C13 12.5072 12.6175 12.7437 12.282 12.6114C11.2885 12.2199 10.1803 12 9 12C5.35984 12 2.40637 14.091 1.38473 16.8615C1.17103 17.441 1.64443 18 2.26208 18H12.5C12.7761 18 13 18.2239 13 18.5C13 18.7761 12.7761 19 12.5 19L1.00002 19Z" fill="#211D1A"/>
<path fill-rule="evenodd" clip-rule="evenodd" d="M15 12.5C15 12.2239 14.7761 12 14.5 12C14.2239 12 14 12.2239 14 12.5V14C14 14.5523 13.5523 15 13 15H11.5C11.2239 15 11 15.2239 11 15.5C11 15.7761 11.2239 16 11.5 16H13C13.5523 16 14 16.4477 14 17V18.5C14 18.7761 14.2239 19 14.5 19C14.7761 19 15 18.7761 15 18.5V17C15 16.4477 15.4477 16 16 16H17.5C17.7761 16 18 15.7761 18 15.5C18 15.2239 17.7761 15 17.5 15H16C15.4477 15 15 14.5523 15 14V12.5Z" fill="#211D1A"/>
</svg>
