<svg width="44" height="44" viewBox="0 0 44 44" fill="none" xmlns="http://www.w3.org/2000/svg">
<g opacity="0.5">
<path d="M5.5 7.33325V1.83325H9.16667V7.33325H14.6667V10.9999H9.16667V16.4999H5.5V10.9999H0V7.33325H5.5ZM11 18.3333V12.8333H16.5V7.33325H29.3333L32.6883 10.9999H38.5C40.5167 10.9999 42.1667 12.6499 42.1667 14.6666V36.6666C42.1667 38.6833 40.5167 40.3333 38.5 40.3333H9.16667C7.15 40.3333 5.5 38.6833 5.5 36.6666V18.3333H11ZM23.8333 34.8333C28.8933 34.8333 33 30.7266 33 25.6666C33 20.6066 28.8933 16.4999 23.8333 16.4999C18.7733 16.4999 14.6667 20.6066 14.6667 25.6666C14.6667 30.7266 18.7733 34.8333 23.8333 34.8333ZM17.9667 25.6666C17.9667 28.9116 20.5883 31.5333 23.8333 31.5333C27.0783 31.5333 29.7 28.9116 29.7 25.6666C29.7 22.4216 27.0783 19.7999 23.8333 19.7999C20.5883 19.7999 17.9667 22.4216 17.9667 25.6666Z" fill="black"/>
</g>
</svg>