<svg width="31" height="31" viewBox="0 0 31 31" fill="none" xmlns="http://www.w3.org/2000/svg">
<path d="M16.1705 30.7045C19.4091 30.7045 22.5795 29.9432 24 29.1364L22.875 25.8409C21.6591 26.3409 19.0455 27 16.4318 27C9.02273 27 5 23.0682 4.97727 15.8864C5 9.38636 8.70455 4.48864 16.2614 4.48864C21.7273 4.48864 26.8068 7.10227 26.7955 14.2386C26.8068 18.6818 25.9886 20.7045 24.4205 20.7045C23.6364 20.7045 23.1591 20.1136 23.1477 19.0568V7.96591H19.5909V9.23864H19.4318C19.0455 8.23864 16.6364 7.29545 14.0795 7.68182C11.0455 8.125 7.77273 10.6136 7.75 15.8864C7.77273 21.2386 10.8182 23.9773 14.4091 24.1705C16.9886 24.3182 19.3068 23.2386 19.8409 21.8636H19.9773C20.2273 23.4318 21.2727 24.5 23.9091 24.3068C28.8182 24.0341 30.6932 20.0795 30.6818 14.5C30.6932 6.42045 25.3523 0.829544 16.3182 0.829544C6.54545 0.829544 0.943182 6.88636 0.931818 16.0227C0.943182 25.3068 6.5 30.7045 16.1705 30.7045ZM15.6477 20.4318C12.6818 20.4318 11.6818 18.1591 11.6705 15.75C11.6818 13.1591 13.1023 11.4659 15.625 11.4659C18.5 11.4659 19.3636 12.9886 19.375 15.7159C19.4091 18.8068 18.4318 20.4318 15.6477 20.4318Z" fill="black"/>
</svg>
