<svg width="27" height="23" viewBox="0 0 27 23" fill="none" xmlns="http://www.w3.org/2000/svg">
<path d="M15.3394 9.9381L1.21884 9.9381C0.545738 9.9381 4.35044e-05 10.4838 4.34456e-05 11.1569C4.33867e-05 11.83 0.545738 12.3757 1.21884 12.3757L15.3394 12.3757L13.7635 13.9515C13.2876 14.4275 13.2876 15.1991 13.7635 15.6751C14.2394 16.1511 15.0112 16.1511 15.4872 15.6751L19.1434 12.0188C19.1719 11.9903 19.1989 11.9604 19.2244 11.9292C19.2355 11.9156 19.2452 11.9012 19.2557 11.8874C19.2691 11.8695 19.2829 11.852 19.2953 11.8334C19.3067 11.8164 19.3165 11.7988 19.3269 11.7814C19.3369 11.7647 19.3474 11.7483 19.3566 11.7311C19.3662 11.7132 19.3742 11.6949 19.3828 11.6767C19.3913 11.6589 19.4001 11.6413 19.4077 11.6231C19.415 11.6053 19.421 11.5872 19.4274 11.5692C19.4345 11.5497 19.442 11.5304 19.448 11.5105C19.4534 11.4925 19.4574 11.4742 19.462 11.4559C19.4671 11.4357 19.4728 11.4155 19.4768 11.3949C19.481 11.3738 19.4835 11.3525 19.4865 11.3313C19.4891 11.3132 19.4926 11.2953 19.4944 11.277C19.4983 11.2377 19.5003 11.1981 19.5004 11.1586C19.5004 11.158 19.5005 11.1574 19.5005 11.1568C19.5005 11.1562 19.5004 11.1556 19.5004 11.155C19.5003 11.1155 19.4983 11.076 19.4944 11.0366C19.4926 11.0184 19.4892 11.0008 19.4867 10.9828C19.4836 10.9614 19.4811 10.9399 19.4768 10.9187C19.4728 10.8982 19.4672 10.8784 19.4621 10.8583C19.4574 10.8398 19.4534 10.8212 19.4478 10.803C19.4419 10.7834 19.4345 10.7644 19.4277 10.7453C19.4211 10.7269 19.4151 10.7085 19.4076 10.6904C19.4002 10.6725 19.3915 10.6554 19.3832 10.6379C19.3745 10.6193 19.3662 10.6006 19.3564 10.5823C19.3475 10.5656 19.3373 10.5498 19.3277 10.5336C19.317 10.5156 19.3069 10.4975 19.2952 10.4801C19.2833 10.4623 19.2701 10.4456 19.2573 10.4285C19.2462 10.4138 19.236 10.3986 19.2242 10.3843C19.1999 10.3547 19.1742 10.3263 19.1473 10.2991C19.146 10.2978 19.1449 10.2963 19.1436 10.295L15.4872 6.63858C15.2492 6.40059 14.9373 6.28155 14.6254 6.28155C14.3135 6.28164 14.0015 6.40059 13.7636 6.6385C13.2877 7.11448 13.2877 7.88614 13.7635 8.36212L15.3394 9.9381Z" fill="#A2CB63"/>
<path d="M24.7825 0.1875H9.3444C8.6713 0.1875 8.12561 0.733194 8.12561 1.40629V6.28146C8.12561 6.95456 8.6713 7.50026 9.3444 7.50026C10.0175 7.50026 10.5632 6.95456 10.5632 6.28146V2.62509H23.5637V19.6883H10.5632V16.0318C10.5632 15.3587 10.0175 14.813 9.3444 14.813C8.6713 14.813 8.12561 15.3587 8.12561 16.0318V20.9071C8.12561 21.5802 8.6713 22.1259 9.3444 22.1259H24.7825C25.4555 22.1259 26.0012 21.5802 26.0012 20.9071V1.40629C26.0012 0.733194 25.4555 0.1875 24.7825 0.1875Z" fill="#A2CB63"/>
</svg>
