<svg width="26" height="23" viewBox="0 0 26 23" fill="none" xmlns="http://www.w3.org/2000/svg">
<path d="M4.16112 12.3755H18.2817C18.9548 12.3755 19.5004 11.8298 19.5004 11.1567C19.5004 10.4836 18.9548 9.93792 18.2817 9.93792H4.16112L5.73694 8.3621C6.21292 7.88612 6.21292 7.11446 5.73694 6.63848C5.26104 6.1625 4.4893 6.1625 4.01332 6.63848L0.357106 10.2948C0.328587 10.3233 0.301611 10.3532 0.276097 10.3844C0.264966 10.398 0.255297 10.4124 0.244815 10.4262C0.231408 10.4441 0.217595 10.4616 0.205164 10.4802C0.193788 10.4972 0.183957 10.5148 0.173556 10.5322C0.163562 10.5489 0.15308 10.5653 0.143899 10.5825C0.134311 10.6004 0.126267 10.6187 0.117654 10.6369C0.109204 10.6547 0.100347 10.6723 0.0927908 10.6905C0.085478 10.7083 0.0794653 10.7264 0.0730463 10.7444C0.0659773 10.7639 0.0585021 10.7832 0.0524894 10.8031C0.0470454 10.8211 0.043064 10.8394 0.0385139 10.8577C0.0333949 10.8779 0.0277072 10.8981 0.0236446 10.9187C0.0195007 10.9398 0.0169818 10.9611 0.0139755 10.9823C0.0113754 11.0004 0.00788153 11.0183 0.00609397 11.0366C0.00219383 11.0759 0.000162506 11.1155 8.12529e-05 11.155C8.12529e-05 11.1556 0 11.1562 0 11.1568C0 11.1574 8.12529e-05 11.158 8.12529e-05 11.1586C0.000162506 11.1981 0.00219383 11.2376 0.00609397 11.277C0.00788153 11.2952 0.0112941 11.3128 0.013813 11.3308C0.0169006 11.3522 0.0194194 11.3737 0.0236446 11.3949C0.0277072 11.4154 0.0333137 11.4352 0.0384326 11.4553C0.043064 11.4738 0.0471267 11.4924 0.0526519 11.5106C0.0585833 11.5302 0.0659773 11.5492 0.0728026 11.5683C0.0793841 11.5867 0.0853968 11.6051 0.092872 11.6232C0.100266 11.6411 0.10896 11.6582 0.117248 11.6757C0.126023 11.6943 0.134311 11.713 0.144061 11.7313C0.152999 11.748 0.163156 11.7638 0.172825 11.78C0.183469 11.798 0.193626 11.8161 0.205326 11.8335C0.217189 11.8513 0.230433 11.868 0.24319 11.8851C0.25424 11.8998 0.264478 11.915 0.27626 11.9293C0.300554 11.9589 0.326312 11.9873 0.353206 12.0145C0.354506 12.0158 0.355563 12.0173 0.356863 12.0186L4.01324 15.675C4.25131 15.913 4.56316 16.032 4.87509 16.032C5.18694 16.032 5.49895 15.913 5.73686 15.6751C6.21284 15.1991 6.21284 14.4275 5.73694 13.9515L4.16112 12.3755Z" fill="#EC4D4D"/>
<path d="M24.7822 0.1875H9.34416C8.67106 0.1875 8.12537 0.733194 8.12537 1.40629V6.28146C8.12537 6.95456 8.67106 7.50026 9.34416 7.50026C10.0173 7.50026 10.563 6.95456 10.563 6.28146V2.62509H23.5634V19.6883H10.563V16.0318C10.563 15.3587 10.0173 14.813 9.34416 14.813C8.67106 14.813 8.12537 15.3587 8.12537 16.0318V20.9071C8.12537 21.5802 8.67106 22.1259 9.34416 22.1259H24.7822C25.4553 22.1259 26.001 21.5802 26.001 20.9071V1.40629C26.001 0.733194 25.4553 0.1875 24.7822 0.1875Z" fill="#EC4D4D"/>
</svg>
