<svg width="10" height="13" viewBox="0 0 10 13" fill="none" xmlns="http://www.w3.org/2000/svg">
<path fill-rule="evenodd" clip-rule="evenodd" d="M8.04594 1.688C7.21538 0.94092 6.09345 0.5147 4.9188 0.5H4.87432C3.69958 0.514487 2.57748 0.940565 1.74673 1.68759C0.915984 2.43462 0.442155 3.44364 0.426045 4.5C0.411588 5.25 0.646235 5.987 1.09996 6.617L4.60075 13H5.19349L8.69317 6.617C9.148 5.987 9.38265 5.25 9.36708 4.5C9.35073 3.44373 8.87675 2.43486 8.04594 1.688V1.688ZM4.81316 1.5L4.90435 1.51L4.98664 1.5C5.86024 1.53421 6.68608 1.86807 7.29439 2.43293C7.9027 2.99779 8.24726 3.75074 8.25724 4.537C8.26574 5.09503 8.08455 5.64209 7.7379 6.105L7.71566 6.139L7.69675 6.174L4.89656 11.279L2.09748 6.179L2.07858 6.14L2.05634 6.106C1.70969 5.64309 1.52849 5.09603 1.537 4.538C1.54649 3.75083 1.89145 2.99693 2.50078 2.4317C3.11011 1.86647 3.93738 1.53299 4.81204 1.5H4.81316ZM5.49374 3.669C5.37231 3.59599 5.23608 3.54519 5.09282 3.51952C4.94955 3.49385 4.80207 3.49381 4.65879 3.51939C4.51551 3.54497 4.37924 3.59568 4.25775 3.66862C4.13627 3.74156 4.03195 3.83531 3.95075 3.9445C3.86955 4.05369 3.81306 4.1762 3.78452 4.30502C3.75597 4.43385 3.75592 4.56647 3.78437 4.69531C3.81282 4.82415 3.86921 4.94669 3.95033 5.05593C4.03144 5.16518 4.13569 5.25898 4.25712 5.332C4.50236 5.47946 4.80271 5.53328 5.09207 5.48161C5.38144 5.42994 5.63613 5.27703 5.80012 5.0565C5.9641 4.83597 6.02395 4.5659 5.9665 4.30569C5.90904 4.04549 5.73898 3.81646 5.49374 3.669V3.669ZM3.63992 2.837C3.88257 2.68362 4.15688 2.57544 4.44671 2.5188C4.73655 2.46217 5.03605 2.45824 5.3276 2.50724C5.61915 2.55624 5.89685 2.65718 6.14437 2.80412C6.39189 2.95106 6.60423 3.14104 6.76889 3.36287C6.93355 3.5847 7.0472 3.83391 7.10317 4.09583C7.15913 4.35774 7.15627 4.62708 7.09476 4.88799C7.03324 5.1489 6.91432 5.39611 6.74498 5.61507C6.57564 5.83404 6.35931 6.02033 6.10872 6.163C5.61818 6.44227 5.02566 6.53799 4.4577 6.42971C3.88975 6.32144 3.39138 6.01775 3.06907 5.58352C2.74675 5.14929 2.62603 4.61894 2.7327 4.10576C2.83936 3.59257 3.16495 3.13723 3.63992 2.837V2.837Z" fill="black"/>
</svg>
