<svg width="20" height="20" viewBox="0 0 20 20" fill="none" xmlns="http://www.w3.org/2000/svg">
<mask id="mask0_512_4725" style="mask-type:alpha" maskUnits="userSpaceOnUse" x="4" y="4" width="5" height="5">
<rect x="9" y="4" width="5" height="5" transform="rotate(90 9 4)" fill="#C4C4C4"/>
</mask>
<g mask="url(#mask0_512_4725)">
<circle cx="7.5" cy="6.5" r="2" transform="rotate(90 7.5 6.5)" stroke="#211D1A"/>
</g>
<mask id="path-3-inside-1_512_4725" fill="white">
<path fill-rule="evenodd" clip-rule="evenodd" d="M8.00024 3.31934H19.9996V8.31931H20.001C20.001 11.0807 17.7624 13.3193 15.001 13.3193H13.0016C10.2402 13.3193 8.00163 11.0807 8.00162 8.31932H8.00024V3.31934Z"/>
</mask>
<path d="M19.9996 3.31934V2.31934H20.9996V3.31934H19.9996ZM8.00024 3.31934H7.00024V2.31934H8.00024V3.31934ZM19.9996 8.31931V9.31931H18.9996V8.31931H19.9996ZM20.001 8.31931V7.31931H21.001V8.31931H20.001ZM8.00162 8.31932V7.31932H9.00162L9.00162 8.31931L8.00162 8.31932ZM8.00024 8.31932V9.31932H7.00024V8.31932H8.00024ZM19.9996 4.31934H8.00024V2.31934H19.9996V4.31934ZM18.9996 8.31931V3.31934H20.9996V8.31931H18.9996ZM19.9996 7.31931H20.001V9.31931H19.9996V7.31931ZM21.001 8.31931C21.001 11.633 18.3147 14.3193 15.001 14.3193V12.3193C17.2101 12.3193 19.001 10.5284 19.001 8.31931H21.001ZM15.001 14.3193H13.0016V12.3193H15.001V14.3193ZM13.0016 14.3193C9.68791 14.3193 7.00163 11.633 7.00162 8.31932L9.00162 8.31931C9.00163 10.5284 10.7925 12.3193 13.0016 12.3193V14.3193ZM8.00024 7.31932H8.00162V9.31932H8.00024V7.31932ZM9.00024 3.31934V8.31932H7.00024V3.31934H9.00024Z" fill="#211D1A" mask="url(#path-3-inside-1_512_4725)"/>
<path d="M18.0877 5.93839L17.8393 5.50442L17.846 5.50059L17.8528 5.49698C18.9569 4.90955 19.5 4.15072 19.5 3.42857C19.5 2.73866 19.0061 2.01634 17.9946 1.43833C16.9972 0.868399 15.586 0.5 14 0.5C12.414 0.5 11.0028 0.868399 10.0054 1.43833C8.99391 2.01634 8.5 2.73866 8.5 3.42857C8.5 4.11848 8.99391 4.84081 10.0054 5.41882C11.0028 5.98874 12.414 6.35714 14 6.35714C14.3201 6.35714 14.6337 6.34212 14.9387 6.31331L15.251 6.28382L15.4134 6.55212C15.7044 7.03269 16.0604 7.32087 16.4598 7.46305C16.7105 7.5523 16.9968 7.59049 17.3201 7.56831C17.1074 7.04023 17.1142 6.58903 17.2548 6.21978C17.3469 5.97807 17.485 5.80466 17.6001 5.69151C17.6579 5.63473 17.7112 5.59174 17.7528 5.56136C17.7737 5.54611 17.7919 5.53385 17.8065 5.52445C17.8139 5.51974 17.8203 5.51573 17.8258 5.5124L17.8333 5.50791L17.8365 5.50604L17.838 5.5052L17.8387 5.5048C17.839 5.50461 17.8393 5.50442 18.0877 5.93839Z" fill="#FFF6E5" stroke="#211D1A"/>
<mask id="mask1_512_4725" style="mask-type:alpha" maskUnits="userSpaceOnUse" x="11" y="10" width="6" height="6">
<rect width="5" height="5" transform="matrix(4.37114e-08 1 1 -4.37114e-08 11.001 10.6797)" fill="#C4C4C4"/>
</mask>
<g mask="url(#mask1_512_4725)">
<circle r="2" transform="matrix(4.37114e-08 1 1 -4.37114e-08 12.501 13.1797)" fill="#FFF6E5" stroke="#211D1A"/>
</g>
<mask id="path-8-inside-2_512_4725" fill="white">
<path fill-rule="evenodd" clip-rule="evenodd" d="M12.0007 9.99902H0.00138736V14.999H0C0 17.7604 2.23857 19.999 4.99998 19.999H6.99938C9.76078 19.999 11.9993 17.7604 11.9994 14.999H12.0007V9.99902Z"/>
</mask>
<path fill-rule="evenodd" clip-rule="evenodd" d="M12.0007 9.99902H0.00138736V14.999H0C0 17.7604 2.23857 19.999 4.99998 19.999H6.99938C9.76078 19.999 11.9993 17.7604 11.9994 14.999H12.0007V9.99902Z" fill="#FFF6E5"/>
<path d="M0.00138736 9.99902V8.99902H-0.998613V9.99902H0.00138736ZM12.0007 9.99902H13.0007V8.99902H12.0007V9.99902ZM0.00138736 14.999V15.999H1.00139V14.999H0.00138736ZM0 14.999V13.999H-1V14.999H0ZM11.9994 14.999V13.999H10.9994L10.9994 14.999L11.9994 14.999ZM12.0007 14.999V15.999H13.0007V14.999H12.0007ZM0.00138736 10.999H12.0007V8.99902H0.00138736V10.999ZM1.00139 14.999V9.99902H-0.998613V14.999H1.00139ZM0.00138736 13.999H0V15.999H0.00138736V13.999ZM-1 14.999C-1 18.3127 1.68628 20.999 4.99998 20.999V18.999C2.79085 18.999 1 17.2081 1 14.999H-1ZM4.99998 20.999H6.99938V18.999H4.99998V20.999ZM6.99938 20.999C10.3131 20.999 12.9993 18.3127 12.9994 14.999L10.9994 14.999C10.9993 17.2081 9.2085 18.999 6.99938 18.999V20.999ZM12.0007 13.999H11.9994V15.999H12.0007V13.999ZM11.0007 9.99902V14.999H13.0007V9.99902H11.0007Z" fill="#211D1A" mask="url(#path-8-inside-2_512_4725)"/>
<path d="M1.91331 12.6181L2.16164 12.1841L2.15496 12.1803L2.14816 12.1767C1.04408 11.5892 0.500977 10.8304 0.500977 10.1083C0.500977 9.41835 0.994886 8.69603 2.00641 8.11801C3.00378 7.54809 4.41501 7.17969 6.00098 7.17969C7.58694 7.17969 8.99817 7.54809 9.99555 8.11801C11.0071 8.69603 11.501 9.41835 11.501 10.1083C11.501 10.7982 11.0071 11.5205 9.99555 12.0985C8.99817 12.6684 7.58694 13.0368 6.00098 13.0368C5.68087 13.0368 5.36727 13.0218 5.06227 12.993L4.75001 12.9635L4.58755 13.2318C4.29657 13.7124 3.94062 14.0006 3.54123 14.1427C3.29051 14.232 3.00421 14.2702 2.68088 14.248C2.89357 13.7199 2.88679 13.2687 2.74614 12.8995C2.65407 12.6578 2.51601 12.4843 2.40088 12.3712C2.34311 12.3144 2.28974 12.2714 2.24814 12.2411C2.22725 12.2258 2.20907 12.2135 2.19444 12.2041C2.18712 12.1994 2.18066 12.1954 2.17517 12.1921L2.16765 12.1876L2.16445 12.1857L2.163 12.1849L2.1623 12.1845C2.16197 12.1843 2.16164 12.1841 1.91331 12.6181Z" fill="#FFF6E5" stroke="#211D1A"/>
</svg>
