<svg width="73" height="74" viewBox="0 0 73 74" fill="none" xmlns="http://www.w3.org/2000/svg">
<mask id="mask0_493_4685" style="mask-type:alpha" maskUnits="userSpaceOnUse" x="11" y="14" width="20" height="19">
<rect x="30.1815" y="14.416" width="18.251" height="18.2491" transform="rotate(90 30.1815 14.416)" fill="#C4C4C4"/>
</mask>
<g mask="url(#mask0_493_4685)">
<path d="M24.7068 31.667C20.2199 31.667 16.5823 28.0292 16.5823 23.5415C16.5823 19.0538 20.2199 15.416 24.7068 15.416C29.1938 15.416 32.8314 19.0538 32.8314 23.5415C32.8314 28.0292 29.1938 31.667 24.7068 31.667Z" fill="#FFF6E5" stroke="#211D1A" stroke-width="2"/>
</g>
<mask id="path-3-inside-1_493_4685" fill="white">
<path fill-rule="evenodd" clip-rule="evenodd" d="M26.809 11.9326H70.3282V29.665H70.333C70.333 29.8089 70.3314 29.9523 70.3282 30.0954V30.1835H70.3261C70.0514 40.4107 61.6746 48.6169 51.3811 48.6169H45.7657C35.4722 48.6169 27.0954 40.4107 26.8207 30.1835H26.809V11.9326Z"/>
</mask>
<path fill-rule="evenodd" clip-rule="evenodd" d="M26.809 11.9326H70.3282V29.665H70.333C70.333 29.8089 70.3314 29.9523 70.3282 30.0954V30.1835H70.3261C70.0514 40.4107 61.6746 48.6169 51.3811 48.6169H45.7657C35.4722 48.6169 27.0954 40.4107 26.8207 30.1835H26.809V11.9326Z" fill="#FFF6E5"/>
<path d="M70.3282 11.9326V9.93262H72.3282V11.9326H70.3282ZM26.809 11.9326H24.809V9.93262H26.809V11.9326ZM70.3282 29.665V31.665H68.3282V29.665H70.3282ZM70.333 29.665V27.665H72.333V29.665H70.333ZM70.3282 30.0954H68.3282V30.0731L68.3287 30.0508L70.3282 30.0954ZM70.3282 30.1835H72.3282V32.1835H70.3282V30.1835ZM70.3261 30.1835L68.3268 30.1298L68.379 28.1835H70.3261V30.1835ZM26.8207 30.1835V28.1835H28.7677L28.82 30.1298L26.8207 30.1835ZM26.809 30.1835V32.1835H24.809V30.1835H26.809ZM70.3282 13.9326H26.809V9.93262H70.3282V13.9326ZM68.3282 29.665V11.9326H72.3282V29.665H68.3282ZM70.3282 27.665H70.333V31.665H70.3282V27.665ZM72.333 29.665C72.333 29.8237 72.3312 29.982 72.3277 30.1399L68.3287 30.0508C68.3316 29.9226 68.333 29.794 68.333 29.665H72.333ZM68.3282 30.1835V30.0954H72.3282V30.1835H68.3282ZM70.3261 28.1835H70.3282V32.1835H70.3261V28.1835ZM72.3253 30.2372C72.0216 41.5447 62.7611 50.6169 51.3811 50.6169V46.6169C60.588 46.6169 68.0811 39.2766 68.3268 30.1298L72.3253 30.2372ZM51.3811 50.6169H45.7657V46.6169H51.3811V50.6169ZM45.7657 50.6169C34.3856 50.6169 25.1252 41.5447 24.8215 30.2372L28.82 30.1298C29.0657 39.2766 36.5588 46.6169 45.7657 46.6169V50.6169ZM26.809 28.1835H26.8207V32.1835H26.809V28.1835ZM28.809 11.9326V30.1835H24.809V11.9326H28.809Z" fill="#211D1A" mask="url(#path-3-inside-1_493_4685)"/>
<path d="M63.3943 21.5383L62.8976 20.6704L62.911 20.6628L62.9246 20.6555C67.0464 18.4623 69.3296 15.4921 69.3296 12.4353C69.3296 9.51508 67.2493 6.67589 63.4602 4.51044C59.6993 2.36115 54.4369 1 48.57 1C42.703 1 37.4407 2.36115 33.6798 4.51044C29.8906 6.67589 27.8104 9.51508 27.8104 12.4353C27.8104 15.3556 29.8906 18.1947 33.6798 20.3602C37.4407 22.5095 42.703 23.8706 48.57 23.8706C49.7563 23.8706 50.9191 23.815 52.0507 23.7081L52.6753 23.6491L53.0002 24.1857C54.138 26.0651 55.5682 27.2473 57.2178 27.8346C58.5502 28.309 60.0875 28.4169 61.8205 28.1226C60.6492 25.9099 60.6345 24.1599 61.134 22.8486C61.4172 22.1049 61.842 21.5712 62.1962 21.2231C62.3736 21.0487 62.5361 20.9181 62.6596 20.8279C62.7215 20.7827 62.7741 20.7473 62.8146 20.7213C62.8349 20.7082 62.8521 20.6975 62.8661 20.6891L62.8845 20.6781L62.8917 20.6738L62.8948 20.672L62.8963 20.6712C62.897 20.6708 62.8976 20.6704 63.3943 21.5383Z" fill="#FFF6E5" stroke="#211D1A" stroke-width="2"/>
<mask id="mask1_493_4685" style="mask-type:alpha" maskUnits="userSpaceOnUse" x="40" y="38" width="19" height="20">
<rect width="18.251" height="18.2491" transform="matrix(4.3707e-08 1 1 -4.37158e-08 40.1516 38.9834)" fill="#C4C4C4"/>
</mask>
<g mask="url(#mask1_493_4685)">
<path d="M45.6264 56.2344C50.1133 56.2344 53.7509 52.5966 53.7509 48.1089C53.7509 43.6212 50.1133 39.9834 45.6264 39.9834C41.1394 39.9834 37.5018 43.6212 37.5018 48.1089C37.5018 52.5966 41.1394 56.2344 45.6264 56.2344Z" fill="#FFF6E5" stroke="#211D1A" stroke-width="2"/>
</g>
<mask id="path-8-inside-2_493_4685" fill="white">
<path fill-rule="evenodd" clip-rule="evenodd" d="M43.5242 36.5H0.00498099V54.2324H0.000183105C0.000183105 54.3764 0.00178804 54.5199 0.00498099 54.6631V54.7509H0.00713803C0.281829 64.978 8.65863 73.1843 18.9521 73.1843H24.5675C34.861 73.1843 43.2378 64.978 43.5125 54.7509H43.5242V36.5Z"/>
</mask>
<path fill-rule="evenodd" clip-rule="evenodd" d="M43.5242 36.5H0.00498099V54.2324H0.000183105C0.000183105 54.3764 0.00178804 54.5199 0.00498099 54.6631V54.7509H0.00713803C0.281829 64.978 8.65863 73.1843 18.9521 73.1843H24.5675C34.861 73.1843 43.2378 64.978 43.5125 54.7509H43.5242V36.5Z" fill="#FFF6E5"/>
<path d="M0.00498099 36.5V34.5H-1.99502V36.5H0.00498099ZM43.5242 36.5H45.5242V34.5H43.5242V36.5ZM0.00498099 54.2324V56.2324H2.00498V54.2324H0.00498099ZM0.000183105 54.2324V52.2324H-1.99982V54.2324H0.000183105ZM0.00498099 54.6631H2.00498V54.6408L2.00448 54.6185L0.00498099 54.6631ZM0.00498099 54.7509H-1.99502V56.7509H0.00498099V54.7509ZM0.00713803 54.7509L2.00642 54.6972L1.95414 52.7509H0.00713803V54.7509ZM43.5125 54.7509V52.7509H41.5655L41.5132 54.6972L43.5125 54.7509ZM43.5242 54.7509V56.7509H45.5242V54.7509H43.5242ZM0.00498099 38.5H43.5242V34.5H0.00498099V38.5ZM2.00498 54.2324V36.5H-1.99502V54.2324H2.00498ZM0.00498099 52.2324H0.000183105V56.2324H0.00498099V52.2324ZM-1.99982 54.2324C-1.99982 54.3912 -1.99805 54.5497 -1.99452 54.7077L2.00448 54.6185C2.00162 54.4902 2.00018 54.3615 2.00018 54.2324H-1.99982ZM2.00498 54.7509V54.6631H-1.99502V54.7509H2.00498ZM0.00713803 52.7509H0.00498099V56.7509H0.00713803V52.7509ZM-1.99214 54.8046C-1.68843 66.1121 7.57205 75.1843 18.9521 75.1843V71.1843C9.74521 71.1843 2.25209 63.844 2.00642 54.6972L-1.99214 54.8046ZM18.9521 75.1843H24.5675V71.1843H18.9521V75.1843ZM24.5675 75.1843C35.9476 75.1843 45.208 66.1121 45.5117 54.8046L41.5132 54.6972C41.2675 63.844 33.7744 71.1843 24.5675 71.1843V75.1843ZM43.5242 52.7509H43.5125V56.7509H43.5242V52.7509ZM41.5242 36.5V54.7509H45.5242V36.5H41.5242Z" fill="#211D1A" mask="url(#path-8-inside-2_493_4685)"/>
<path d="M6.93886 46.1057L7.43556 45.2378L7.4222 45.2302L7.40861 45.2229C3.28678 43.0297 1.0036 40.0594 1.0036 37.0027C1.0036 34.0825 3.08387 31.2433 6.87302 29.0778C10.6339 26.9285 15.8963 25.5674 21.7632 25.5674C27.6302 25.5674 32.8925 26.9285 36.6534 29.0778C40.4426 31.2433 42.5228 34.0825 42.5228 37.0027C42.5228 39.9229 40.4426 42.7621 36.6534 44.9276C32.8925 47.0769 27.6302 48.438 21.7632 48.438C20.5769 48.438 19.4141 48.3823 18.2824 48.2755L17.6579 48.2165L17.333 48.7531C16.1951 50.6325 14.765 51.8147 13.1154 52.402C11.783 52.8764 10.2457 52.9842 8.5127 52.69C9.68402 50.4773 9.69867 48.7273 9.1992 47.4159C8.91595 46.6723 8.49118 46.1386 8.13704 45.7905C7.95955 45.6161 7.79708 45.4855 7.6736 45.3953C7.6117 45.3501 7.55908 45.3147 7.5186 45.2886C7.49834 45.2756 7.48106 45.2649 7.46712 45.2565L7.44873 45.2455L7.44148 45.2412L7.43835 45.2394L7.43691 45.2386C7.43623 45.2382 7.43556 45.2378 6.93886 46.1057Z" fill="#FFF6E5" stroke="#211D1A" stroke-width="2"/>
</svg>
