<svg width="28" height="30" viewBox="0 0 28 30" fill="none" xmlns="http://www.w3.org/2000/svg">
<path fill-rule="evenodd" clip-rule="evenodd" d="M13.7681 3.07473C14.058 2.19199 14.9022 1.5755 15.7807 1.84135C18.3493 2.61872 20.2222 5.03473 20.2222 7.89474V11.0526C20.2222 13.8356 18.4489 16.1981 15.9868 17.0397C15.7085 17.1347 15.4627 16.8616 15.5556 16.5789C16.0605 15.0416 16.0605 13.3795 15.5556 11.8421L14.7778 9.47368L14 7.10526L13.7681 6.39895C13.4137 5.32006 13.4137 4.15363 13.7681 3.07473ZM12.0133 1.90773C12.2915 1.81266 12.5373 2.08577 12.4445 2.36842C11.9396 3.90579 11.9396 5.56789 12.4445 7.10526L13.2222 9.47368L14 11.8421L14.232 12.5484C14.5863 13.6273 14.5863 14.7937 14.232 15.8727C13.9421 16.7553 13.0979 17.3719 12.2194 17.106C9.65063 16.3287 7.77778 13.9126 7.77778 11.0526V7.89474C7.77778 5.11178 9.55107 2.74923 12.0133 1.90773ZM13.6461 0.00802871C9.5148 0.195838 6.22223 3.65499 6.22223 7.89474V11.0526C6.22223 15.4128 9.70446 18.9474 14 18.9474C14.0628 18.9474 14.1253 18.9466 14.1877 18.9452C14.2069 18.9466 14.2263 18.9474 14.246 18.9474C14.2825 18.9474 14.3186 18.9447 14.3539 18.9393C18.4851 18.7516 21.7778 15.2924 21.7778 11.0526V7.89474C21.7778 3.5346 18.2955 0 14 0C13.9373 0 13.8747 0.000754331 13.8123 0.00225455C13.7931 0.000761732 13.7737 0 13.7541 0C13.7175 0 13.6814 0.00273041 13.6461 0.00802871Z" fill="#FFF6E5"/>
<path fill-rule="evenodd" clip-rule="evenodd" d="M26.4444 29.9997H28C28 23.0235 21.732 17.3682 14 17.3682C6.26802 17.3682 0 23.0235 0 29.9997C0 29.9997 2.65673e-05 29.9997 5.93398e-05 29.9997H1.55553C1.55554 29.9997 1.55556 29.9997 1.55556 29.9997C1.55556 29.9997 1.55557 29.9997 1.55559 29.9997H26.4444ZM24.4812 28.4208C25.442 28.4208 26.1784 27.5382 25.846 26.6232C24.2567 22.2487 19.6625 18.9471 14 18.9471C8.33753 18.9471 3.74324 22.2487 2.15402 26.6232C1.8216 27.5382 2.558 28.4208 3.51879 28.4208H24.4812Z" fill="#FFF6E5"/>
</svg>
