<svg width="23" height="24" viewBox="0 0 23 24" fill="none" xmlns="http://www.w3.org/2000/svg">
<path fill-rule="evenodd" clip-rule="evenodd" d="M11.3097 2.45979C11.5478 1.75359 12.2413 1.2604 12.9629 1.47308C15.0729 2.09497 16.6113 4.02778 16.6113 6.31579V8.8421C16.6113 11.0685 15.1547 12.9585 13.1322 13.6317C12.9036 13.7078 12.7018 13.4893 12.778 13.2632C13.1928 12.0333 13.1928 10.7036 12.778 9.47368L12.1391 7.57895L11.5002 5.68421L11.3097 5.11916C11.0186 4.25605 11.0186 3.3229 11.3097 2.45979ZM9.86827 1.52619C10.0968 1.45013 10.2987 1.66862 10.2224 1.89474C9.80772 3.12464 9.80772 4.45431 10.2224 5.68421L10.8613 7.57895L11.5002 9.47368L11.6907 10.0387C11.9818 10.9018 11.9818 11.835 11.6907 12.6981C11.4526 13.4043 10.7592 13.8975 10.0375 13.6848C7.92751 13.0629 6.38911 11.1301 6.38911 8.8421V6.31579C6.38911 4.08942 7.84573 2.19939 9.86827 1.52619ZM11.2095 0.00642298C7.81594 0.156671 5.11133 2.924 5.11133 6.31579V8.8421C5.11133 12.3302 7.97174 15.1579 11.5002 15.1579C11.5518 15.1579 11.6032 15.1573 11.6544 15.1561C11.6702 15.1573 11.6861 15.1579 11.7022 15.1579C11.7323 15.1579 11.7619 15.1557 11.7909 15.1515C15.1844 15.0013 17.8891 12.2339 17.8891 8.8421V6.31579C17.8891 2.82768 15.0287 0 11.5002 0C11.4487 0 11.3973 0.000603465 11.346 0.00180364C11.3303 0.000609385 11.3143 0 11.2982 0C11.2682 0 11.2385 0.00218434 11.2095 0.00642298Z" fill="#211D1A"/>
<path fill-rule="evenodd" clip-rule="evenodd" d="M11.5 15.1579C12.5468 15.1579 13.5493 15.2917 14.4891 15.539C14.9059 15.6487 15.3333 15.3497 15.3333 14.9232C15.3333 14.6534 15.1566 14.4132 14.8933 14.3419C13.8207 14.0513 12.6812 13.8948 11.5 13.8948C5.14873 13.8948 0 18.419 0 24C0 24 2.18232e-05 24 4.87434e-05 24H1.27775C1.27777 24 1.27778 24 1.27778 24C1.27778 24 1.27779 24 1.2778 24H13.4167C13.7695 24 14.0556 23.7172 14.0556 23.3685C14.0556 23.0197 13.7695 22.7369 13.4167 22.7369H2.89044C2.10122 22.7369 1.49632 22.0308 1.76938 21.2988C3.07481 17.7992 6.84868 15.1579 11.5 15.1579Z" fill="#211D1A"/>
<path d="M22.361 19.579C22.361 17.4862 20.6448 15.7896 18.5277 15.7896C16.4106 15.7896 14.6943 17.4862 14.6943 19.579C14.6943 21.6719 16.4106 23.3685 18.5277 23.3685C20.6448 23.3685 22.361 21.6719 22.361 19.579Z" stroke="#211D1A"/>
<path d="M17.25 19.5789H19.8056" stroke="black" stroke-linecap="round"/>
</svg>
