<svg width="25" height="25" viewBox="0 0 25 25" fill="none" xmlns="http://www.w3.org/2000/svg">
<g clip-path="url(#clip0_348_2334)">
<path d="M16.25 1C14.6605 0.999209 13.1045 1.45763 11.7694 2.32012C10.4342 3.18262 9.37658 4.41246 8.72377 5.86176C8.07095 7.31105 7.85071 8.91807 8.08954 10.4896C8.32837 12.0611 9.01609 13.5301 10.07 14.72L2 23.88L3.12 24.88L11.17 15.76C12.2055 16.5699 13.4195 17.1207 14.7109 17.3665C16.0023 17.6123 17.3338 17.5459 18.5944 17.173C19.855 16.8 21.0082 16.1312 21.958 15.2223C22.9078 14.3134 23.6267 13.1908 24.0548 11.9478C24.4829 10.7049 24.6078 9.3776 24.4191 8.07661C24.2303 6.77561 23.7335 5.53854 22.9699 4.46843C22.2063 3.39832 21.1981 2.52616 20.0292 1.92458C18.8603 1.32301 17.5646 1.00944 16.25 1.01V1ZM16.25 16C14.4598 16 12.7429 15.2888 11.477 14.023C10.2112 12.7571 9.5 11.0402 9.5 9.25C9.5 7.45979 10.2112 5.7429 11.477 4.47703C12.7429 3.21116 14.4598 2.5 16.25 2.5C18.0402 2.5 19.7571 3.21116 21.023 4.47703C22.2888 5.7429 23 7.45979 23 9.25C23 11.0402 22.2888 12.7571 21.023 14.023C19.7571 15.2888 18.0402 16 16.25 16Z" fill="#E7D0A7"/>
</g>
<circle cx="16" cy="9" r="7" fill="#FFFCF7"/>
<g clip-path="url(#clip1_348_2334)">
<path d="M15.25 1.02534e-06C13.6605 -0.000791296 12.1045 0.457626 10.7694 1.32012C9.43418 2.18262 8.37658 3.41246 7.72377 4.86176C7.07095 6.31105 6.85071 7.91807 7.08954 9.48956C7.32837 11.0611 8.01609 12.5301 9.07 13.72L1 22.88L2.12 23.88L10.17 14.76C11.2055 15.5699 12.4195 16.1207 13.7109 16.3665C15.0023 16.6123 16.3338 16.5459 17.5944 16.173C18.855 15.8 20.0082 15.1312 20.958 14.2223C21.9078 13.3135 22.6267 12.1908 23.0548 10.9478C23.4829 9.70486 23.6078 8.3776 23.4191 7.07661C23.2303 5.77561 22.7335 4.53854 21.9699 3.46843C21.2063 2.39832 20.1981 1.52616 19.0292 0.924585C17.8603 0.323011 16.5646 0.0094431 15.25 0.010001V1.02534e-06ZM15.25 15C13.4598 15 11.7429 14.2888 10.477 13.023C9.21116 11.7571 8.5 10.0402 8.5 8.25C8.5 6.45979 9.21116 4.7429 10.477 3.47703C11.7429 2.21116 13.4598 1.5 15.25 1.5C17.0402 1.5 18.7571 2.21116 20.023 3.47703C21.2888 4.7429 22 6.45979 22 8.25C22 10.0402 21.2888 11.7571 20.023 13.023C18.7571 14.2888 17.0402 15 15.25 15V15Z" fill="black"/>
</g>
<defs>
<clipPath id="clip0_348_2334">
<rect width="24" height="24" fill="white" transform="translate(1 1)"/>
</clipPath>
<clipPath id="clip1_348_2334">
<rect width="24" height="24" fill="white"/>
</clipPath>
</defs>
</svg>
