<svg width="26" height="26" viewBox="0 0 26 26" fill="none" xmlns="http://www.w3.org/2000/svg">
<g clip-path="url(#clip0_236:638)">
<path d="M16.5208 1.11079e-06C14.7988 -0.000857237 13.1132 0.495761 11.6667 1.43013C10.2203 2.3645 9.07455 3.69684 8.36733 5.2669C7.66012 6.83697 7.42153 8.57791 7.68026 10.2804C7.93898 11.9828 8.68402 13.5743 9.82575 14.8633L1.08325 24.7867L2.29659 25.87L11.0174 15.99C12.1392 16.8674 13.4544 17.4641 14.8534 17.7304C16.2525 17.9967 17.6949 17.9248 19.0605 17.5207C20.4262 17.1167 21.6755 16.3922 22.7044 15.4075C23.7334 14.4229 24.5122 13.2067 24.9759 11.8601C25.4397 10.5136 25.575 9.07574 25.3706 7.66633C25.1661 6.25692 24.6279 4.91675 23.8007 3.75747C22.9734 2.59818 21.8812 1.65334 20.6149 1.00163C19.3486 0.349928 17.9449 0.01023 16.5208 0.0108344V1.11079e-06ZM16.5208 16.25C14.5814 16.25 12.7214 15.4796 11.35 14.1082C9.97867 12.7369 9.20825 10.8769 9.20825 8.9375C9.20825 6.99811 9.97867 5.13814 11.35 3.76678C12.7214 2.39542 14.5814 1.625 16.5208 1.625C18.4601 1.625 20.3201 2.39542 21.6915 3.76678C23.0628 5.13814 23.8333 6.99811 23.8333 8.9375C23.8333 10.8769 23.0628 12.7369 21.6915 14.1082C20.3201 15.4796 18.4601 16.25 16.5208 16.25Z" fill="black"/>
</g>
<defs>
<clipPath id="clip0_236:638">
<rect width="26" height="26" fill="white"/>
</clipPath>
</defs>
</svg>
