<svg width="30" height="31" viewBox="0 0 30 31" fill="none" xmlns="http://www.w3.org/2000/svg">
<path fill-rule="evenodd" clip-rule="evenodd" d="M14.7513 3.17722C15.0619 2.26506 15.9664 1.62802 16.9077 1.90273C19.6598 2.70601 21.6665 5.20255 21.6665 8.15789V11.4211C21.6665 14.2968 19.7665 16.738 17.1285 17.6077C16.8303 17.7059 16.5671 17.4236 16.6665 17.1316C17.2075 15.543 17.2075 13.8255 16.6665 12.2368L15.8332 9.78947L14.9998 7.34211L14.7513 6.61225C14.3717 5.49739 14.3717 4.29208 14.7513 3.17722ZM12.8712 1.97132C13.1693 1.87309 13.4326 2.1553 13.3332 2.44737C12.7922 4.03599 12.7922 5.75349 13.3332 7.34211L14.1665 9.78947L14.9998 12.2368L15.2484 12.9667C15.628 14.0816 15.628 15.2869 15.2484 16.4018C14.9378 17.3138 14.0333 17.951 13.092 17.6762C10.3398 16.873 8.33317 14.3764 8.33317 11.4211V8.15789C8.33317 5.28217 10.2331 2.84087 12.8712 1.97132ZM14.6206 0.00829635C10.1943 0.202366 6.6665 3.77683 6.6665 8.15789V11.4211C6.6665 15.9265 10.3975 19.5789 14.9998 19.5789C15.0671 19.5789 15.1341 19.5781 15.201 19.5767C15.2215 19.5781 15.2423 19.5789 15.2634 19.5789C15.3025 19.5789 15.3412 19.5762 15.3791 19.5706C19.8053 19.3766 23.3332 15.8021 23.3332 11.4211V8.15789C23.3332 3.65242 19.6022 0 14.9998 0C14.9326 0 14.8656 0.000779475 14.7987 0.0023297C14.7782 0.000787123 14.7574 0 14.7363 0C14.6972 0 14.6585 0.00282144 14.6206 0.00829635Z" fill="#211D1A"/>
<path fill-rule="evenodd" clip-rule="evenodd" d="M28.3333 30.9999H30C30 23.7911 23.2843 17.9473 15 17.9473C6.71573 17.9473 0 23.7911 0 30.9999C0 30.9999 2.8465e-05 30.9999 6.35783e-05 30.9999H1.66663C1.66665 30.9999 1.66667 30.9999 1.66667 30.9999C1.66667 30.9999 1.66668 30.9999 1.6667 30.9999H28.3333ZM26.2298 29.3683C27.2593 29.3683 28.0483 28.4563 27.6922 27.5108C25.9893 22.9905 21.067 19.5788 15 19.5788C8.93307 19.5788 4.01062 22.9905 2.30788 27.5108C1.95172 28.4563 2.74072 29.3683 3.77013 29.3683H26.2298Z" fill="#211D1A"/>
</svg>
